<svg width="942" height="460" viewBox="0 0 942 460" fill="none" xmlns="http://www.w3.org/2000/svg">
<path d="M939.212 454.012L922.712 5.51213L3.7121 2.51213L70.2121 167.012H92.2121L101.712 170.512L110.712 181.012L119.212 175.012V162.512L90.7121 118.512L92.2121 79.5121H113.712L148.212 97.5121L176.712 114.012L219.212 141.512L234.712 134.012L260.712 132.512L294.712 135.512L338.712 163.512L340.212 175.012H375.212L395.212 184.012L351.712 211.512V224.012H381.712L416.712 252.012L409.712 285.512L392.712 322.012L435.712 320.512L426.212 368.012L384.712 378.012V419.012L414.212 427.512L454.712 403.012L488.712 397.012L494.212 416.512L547.212 419.012L556.712 413.512L559.212 407.512L613.212 395.012L669.712 425.512L677.212 443.012H747.712L779.212 428.512L814.712 447.512L839.712 420.012L871.212 417.012L902.712 425.512L939.212 454.012Z" stroke="white" stroke-width="5"/>
</svg>
