<svg width="507" height="601" viewBox="0 0 507 601" fill="none" xmlns="http://www.w3.org/2000/svg">
<path d="M443.728 340L497.728 341.5L480.228 352V359L494.728 370.5V391.5L480.228 414L470.228 422.5H456.728L450.728 466L479.728 501.5L485.228 538.5L497.728 553.5L489.228 564.5V572.5L483.228 580L470.728 576L453.728 592L441.728 580H392.728V571L366.228 572.5L359.728 553.5L345.728 546.5L328.728 553.5L298.228 539.5L270.728 546.5H224.728L211.228 548L200.228 539.5L187.728 537H175.228L172.728 551H162.228L151.728 546L140.228 557.5V572L151.728 585L146.728 590L109.228 597.5L72.228 579H41.228L28.728 573H4.22803L2.72803 564L29.728 545.5L41.228 533.5V513H121.228V450H148.228V418L138.728 385.5L19.728 90H41.228L51.728 93.5L61.228 104L69.728 97.5V86L41.228 42.5L42.728 2.5H63.228L123.728 35.5L168.728 65L182.728 58L210.228 56L244.228 58L289.728 86.5V98.5H325.728L344.728 107.5L301.728 136V147.5H332.228L366.728 175L359.728 210L343.228 245L385.728 243L376.728 291.5L334.728 301.5V343.5L364.228 351.5L403.228 327L438.228 321L443.728 340Z" stroke="white" stroke-width="5"/>
</svg>
