<svg width="445" height="405" viewBox="0 0 445 405" fill="none" xmlns="http://www.w3.org/2000/svg">
<path d="M405.135 33.6507L439.635 59.1507L441.635 83.1507L425.635 181.151L379.135 337.151L336.635 401.651L228.135 400.651L232.135 383.651L206.635 373.651L164.135 375.651L169.135 353.151L162.135 333.151L177.135 315.651L167.135 307.151L115.635 329.651L100.135 344.151L85.1354 373.651L75.1354 370.151L76.6354 345.651L44.1354 338.651L58.1354 259.151L41.1354 257.651V247.651L49.1354 237.651L36.6354 222.151L30.6354 184.151L2.63538 149.651L9.13538 106.151H24.1354L31.6354 98.6507L46.6354 76.6507V54.6507L31.6354 43.1507L32.6354 36.1507L59.1354 20.1507L60.1354 15.6507L115.135 2.6507L171.135 32.6507L178.635 50.6507H249.635L280.135 35.6507L316.635 55.1507L341.135 27.6507L373.635 23.6507L405.135 33.6507Z" stroke="white" stroke-width="5"/>
</svg>
