<svg width="407" height="322" viewBox="0 0 407 322" fill="none" xmlns="http://www.w3.org/2000/svg">
<path d="M249.05 41.4107L216.05 34.4107L209.05 51.9107L193.55 42.9107L182.05 41.9107L165.55 32.4107L164.55 58.4107L173.05 104.411L111.05 105.411V75.9107H100.55L98.0505 65.9107H70.0505L63.5505 68.9107L50.0505 63.4107L3.55048 86.4107L22.0505 116.911L51.0505 191.911L50.5505 221.911L22.0505 251.911L37.0505 285.911L59.0505 283.411L129.55 318.411L167.05 300.411L204.55 268.911H231.05L260.05 281.911L281.55 268.411L276.55 248.411L303.05 216.911L303.55 191.911L366.05 138.411V97.9107L400.05 96.9107L404.05 78.9107L379.55 69.9107L335.55 72.4107L341.05 48.4107L332.05 29.9107L348.55 11.4107L338.55 2.91071L287.55 24.9107L272.05 38.9107L256.55 68.9107L246.55 66.4107L249.05 41.4107Z" stroke="white" stroke-width="5"/>
</svg>
