<svg width="459" height="199" viewBox="0 0 459 199" fill="none" xmlns="http://www.w3.org/2000/svg">
<path d="M126.5 23.5V2.5H117L2.5 86.5V113.5L64 124L94 153L103.5 156L123.5 137L144.5 130.5L203.5 127H304L339.5 156L364.5 195.5L411 172L423 178L428 164V143.5L425.5 133.5L436.5 104H456.5V80.5L448 79.5L451.5 67.5V61L446 42L430.5 35L414 42L383 28L355 35H310.5L296.5 36.5L285.5 28L272 25.5H262L258 39.5H247L236.5 35L226 45.5V61.5L236.5 74L231 79L195 86L157.5 68H126.5L113.5 61.5L89.5 60.5L88 52.5L113.5 35.5L126.5 23.5Z" stroke="white" stroke-width="5"/>
</svg>
